<?xml version="1.0" encoding="UTF-8" standalone="no"?>
<svg
   id="Layer_1"
   viewBox="0 0 5.76 5.76"
   width="48"
   height="48"
   version="1.1"
   sodipodi:docname="pixabay.svg"
   inkscape:version="1.4 (e7c3feb100, 2024-10-09)"
   xmlns:inkscape="http://www.inkscape.org/namespaces/inkscape"
   xmlns:sodipodi="http://sodipodi.sourceforge.net/DTD/sodipodi-0.dtd"
   xmlns="http://www.w3.org/2000/svg"
   xmlns:svg="http://www.w3.org/2000/svg"
   xmlns:rdf="http://www.w3.org/1999/02/22-rdf-syntax-ns#"
   xmlns:cc="http://creativecommons.org/ns#"
   xmlns:dc="http://purl.org/dc/elements/1.1/">
  <defs
     id="defs4" />
  <sodipodi:namedview
     id="namedview4"
     pagecolor="#ffffff"
     bordercolor="#000000"
     borderopacity="0.25"
     inkscape:showpageshadow="2"
     inkscape:pageopacity="0.0"
     inkscape:pagecheckerboard="0"
     inkscape:deskcolor="#d1d1d1"
     inkscape:zoom="10.6496"
     inkscape:cx="34.179688"
     inkscape:cy="29.672476"
     inkscape:window-width="1920"
     inkscape:window-height="1043"
     inkscape:window-x="1920"
     inkscape:window-y="0"
     inkscape:window-maximized="1"
     inkscape:current-layer="Layer_1" />
  <title
     id="title1">pixabay</title>
  <path
     id="path2"
     style="fill:#ffffff;fill-opacity:1;stroke:none;stroke-width:1.06666672"
     d="M 1.9523437 1.4446875 C 1.8343934 1.4471725 1.7138156 1.4673656 1.5935156 1.5072656 C 1.0751156 1.6781456 0.73340437 2.1658631 0.73148437 2.7457031 C 0.72956437 3.4657031 0.73148437 4.1835938 0.73148437 4.9035937 C 0.73148437 4.9439138 0.73725375 4.98633 0.74109375 5.03625 C 0.90429375 5.04585 1.0675031 5.04768 1.2307031 5.04 L 1.2307031 4.0167187 C 1.4783831 4.0167188 1.7011744 4.0165294 1.9277344 4.0146094 C 2.1043744 4.0146094 2.2770675 3.991665 2.4421875 3.920625 C 2.9567475 3.699825 3.2658694 3.1775981 3.2121094 2.5900781 C 3.1521694 1.9307381 2.5892759 1.4312687 1.9523437 1.4446875 z M 3.0260156 1.4477344 L 3.8533594 2.6880469 L 2.9240625 3.9975 L 3.5252344 3.9975 C 3.7633144 3.68838 3.9723862 3.3638194 4.2239062 3.0508594 L 4.9153125 3.9975 L 5.518125 3.9975 L 4.5869531 2.6880469 L 5.4124219 1.4477344 L 4.8114844 1.4477344 L 4.2201562 2.3308594 L 3.6288281 1.4477344 L 3.0260156 1.4477344 z M 1.9849219 1.9528125 C 2.0093423 1.9533394 2.0338012 1.9551975 2.0582812 1.9584375 L 2.0601562 1.9584375 C 2.4806363 2.0179575 2.77635 2.4058031 2.71875 2.8282031 C 2.66691 3.1968431 2.3692181 3.5078362 1.9525781 3.5001562 C 1.7183381 3.4963163 1.4840981 3.5001562 1.2325781 3.5001562 C 1.2325781 3.1910362 1.2134775 2.9031562 1.2384375 2.6151563 C 1.2690375 2.2353563 1.6186148 1.9449094 1.9849219 1.9528125 z " />
  <metadata
     id="metadata4">
    <rdf:RDF>
      <cc:Work
         rdf:about="">
        <dc:title>pixabay</dc:title>
      </cc:Work>
    </rdf:RDF>
  </metadata>
</svg>
