<?xml version="1.0" encoding="UTF-8" standalone="no"?>
<svg
   id="Layer_1"
   viewBox="0 0 5.76 5.76"
   width="48"
   height="48"
   version="1.1"
   sodipodi:docname="pixabay.svg"
   inkscape:version="1.4 (e7c3feb100, 2024-10-09)"
   xmlns:inkscape="http://www.inkscape.org/namespaces/inkscape"
   xmlns:sodipodi="http://sodipodi.sourceforge.net/DTD/sodipodi-0.dtd"
   xmlns="http://www.w3.org/2000/svg"
   xmlns:svg="http://www.w3.org/2000/svg"
   xmlns:rdf="http://www.w3.org/1999/02/22-rdf-syntax-ns#"
   xmlns:cc="http://creativecommons.org/ns#"
   xmlns:dc="http://purl.org/dc/elements/1.1/">
  <defs
     id="defs4" />
  <sodipodi:namedview
     id="namedview4"
     pagecolor="#ffffff"
     bordercolor="#000000"
     borderopacity="0.25"
     inkscape:showpageshadow="2"
     inkscape:pageopacity="0.0"
     inkscape:pagecheckerboard="0"
     inkscape:deskcolor="#d1d1d1"
     inkscape:zoom="10.6496"
     inkscape:cx="34.179688"
     inkscape:cy="29.484676"
     inkscape:window-width="1920"
     inkscape:window-height="1043"
     inkscape:window-x="1920"
     inkscape:window-y="0"
     inkscape:window-maximized="1"
     inkscape:current-layer="Layer_1" />
  <style
     id="style1">.st0{fill:#48a947}.st1{fill:#f9fbf9}.st2{fill:#fafcfa}.st3{fill:#4aa949}</style>
  <title
     id="title1">pixabay</title>
  <path
     class="st1"
     d="M 1.23072,4.01664 V 5.04 C 1.06752,5.04768 0.90432,5.04576 0.74112,5.03616 0.73728,4.98624 0.73152,4.944 0.73152,4.90368 c 0,-0.72 -0.00192,-1.43808 0,-2.15808 C 0.73344,2.16576 1.0752,1.67808 1.5936,1.5072 2.36352,1.25184 3.14112,1.80864 3.21216,2.59008 3.26592,3.1776 2.9568,3.69984 2.44224,3.92064 2.27712,3.99168 2.10432,4.01472 1.92768,4.01472 1.70112,4.01664 1.4784,4.01664 1.23072,4.01664 Z M 1.23264,3.50016 c 0.25152,0 0.48576,-0.00384 0.72,0 C 2.36928,3.50784 2.66688,3.1968 2.71872,2.82816 2.77632,2.40576 2.48064,2.01792 2.06016,1.9584 H 2.05824 C 1.66656,1.90656 1.27104,2.20992 1.2384,2.61504 1.21344,2.90304 1.23264,3.19104 1.23264,3.50016 Z"
     id="path2"
     style="stroke-width:0.0192" />
  <path
     class="st2"
     d="m 4.58688,2.688 0.9312,1.30944 H 4.9152 L 4.224,3.05088 C 3.97248,3.36384 3.7632,3.68832 3.52512,3.99744 H 2.92416 L 3.85344,2.688 3.02592,1.44768 H 3.6288 l 0.59136,0.8832 0.59136,-0.8832 h 0.60096 z"
     id="path3"
     style="stroke-width:0.0192" />
  <metadata
     id="metadata4">
    <rdf:RDF>
      <cc:Work
         rdf:about="">
        <dc:title>pixabay</dc:title>
      </cc:Work>
    </rdf:RDF>
  </metadata>
</svg>
